HIERARCHY
ROOT Hips
{
 OFFSET 0.000000 0.000000 0.000000
 CHANNELS 6 Xposition Yposition Zposition Yrotation Xrotation Zrotation
 JOINT Chest
 {
  OFFSET 0.000000 9.585900 0.002600
  CHANNELS 3 Yrotation Xrotation Zrotation
  JOINT Chest2
  {
   OFFSET 0.000000 9.601200 -0.005300
   CHANNELS 3 Yrotation Xrotation Zrotation
   JOINT Chest3
   {
    OFFSET 0.000000 9.561800 0.000000
    CHANNELS 3 Yrotation Xrotation Zrotation
    JOINT Chest4
    {
     OFFSET 0.000000 9.552100 0.000000
     CHANNELS 3 Yrotation Xrotation Zrotation
     JOINT Neck
     {
      OFFSET 0.000000 14.453000 0.000000
      CHANNELS 3 Yrotation Xrotation Zrotation
      JOINT Head
      {
       OFFSET 0.000000 8.936500 -0.011300
       CHANNELS 3 Yrotation Xrotation Zrotation
       End Site
       {
        OFFSET 0.000000 17.073600 -0.006000
       }
      }
     }
     JOINT RightCollar
     {
      OFFSET -2.921100 9.558500 0.000000
      CHANNELS 3 Yrotation Xrotation Zrotation
      JOINT RightShoulder
      {
       OFFSET -13.519700 0.000000 0.000000
       CHANNELS 3 Yrotation Xrotation Zrotation
       JOINT RightElbow
       {
        OFFSET 0.000000 -29.696600 0.000000
        CHANNELS 3 Yrotation Xrotation Zrotation
        JOINT RightWrist
        {
         OFFSET 0.000000 -24.004700 0.000000
         CHANNELS 3 Yrotation Xrotation Zrotation
         End Site
         {
          OFFSET 0.000000 -17.728500 0.000000
         }
        }
       }
      }
     }
     JOINT LeftCollar
     {
      OFFSET 2.921100 9.558500 0.000000
      CHANNELS 3 Yrotation Xrotation Zrotation
      JOINT LeftShoulder
      {
       OFFSET 13.519700 0.000000 0.000000
       CHANNELS 3 Yrotation Xrotation Zrotation
       JOINT LeftElbow
       {
        OFFSET 0.000000 -29.696600 0.000000
        CHANNELS 3 Yrotation Xrotation Zrotation
        JOINT LeftWrist
        {
         OFFSET 0.000000 -24.004700 0.000000
         CHANNELS 3 Yrotation Xrotation Zrotation
         End Site
         {
          OFFSET 0.000000 -17.728500 0.000000
         }
        }
       }
      }
     }
    }
   }
  }
 }
 JOINT RightHip
 {
  OFFSET -7.771700 -0.012900 -0.001300
  CHANNELS 3 Yrotation Xrotation Zrotation
  JOINT RightKnee
  {
   OFFSET 0.000000 -40.869800 0.001200
   CHANNELS 3 Yrotation Xrotation Zrotation
   JOINT RightAnkle
   {
    OFFSET 0.000000 -39.717900 0.002100
    CHANNELS 3 Yrotation Xrotation Zrotation
    JOINT RightToe
    {
     OFFSET 0.000000 -4.965400 11.033500
     CHANNELS 3 Yrotation Xrotation Zrotation
     End Site
     {
      OFFSET 0.000000 -1.423100 5.872300
     }
    }
   }
  }
 }
 JOINT LeftHip
 {
  OFFSET 7.771700 -0.012900 -0.001300
  CHANNELS 3 Yrotation Xrotation Zrotation
  JOINT LeftKnee
  {
   OFFSET 0.000000 -40.869800 0.001200
   CHANNELS 3 Yrotation Xrotation Zrotation
   JOINT LeftAnkle
   {
    OFFSET 0.000000 -39.717900 0.002100
    CHANNELS 3 Yrotation Xrotation Zrotation
    JOINT LeftToe
    {
     OFFSET 0.000000 -4.965400 11.033500
     CHANNELS 3 Yrotation Xrotation Zrotation
     End Site
     {
      OFFSET 0.000000 -1.423100 5.872300
     }
    }
   }
  }
 }
}
MOTION
Frames: 13
Frame Time: 0.008333
-54.232034 56.729610 -20.892447 -176.975996 -14.174452 -1.581678 -0.409769 14.686791 0.213602 -0.015874 1.344462 0.051380 -0.059210 2.225630 0.051395 -0.335632 13.155891 0.231478 0.532659 14.731975 2.169323 0.061409 -10.402404 2.014368 -2.919450 0.553852 1.613179 -1.702030 -6.108966 -4.661801 -77.715522 -48.686236 106.852294 -12.964049 15.829488 3.850554 -5.859654 -1.667102 2.203281 5.386604 -11.686013 5.042296 59.741142 -49.024099 -98.545820 11.332495 -8.561829 2.178233 -4.053181 -61.665999 12.190168 -29.323200 84.149248 -32.994059 -9.100274 -15.730671 9.114025 -0.014430 0.295011 -0.325128 16.567817 -55.592821 -19.927293 67.274435 71.630893 68.540947 -6.954684 -14.157435 1.186571 -0.035678 0.045655 -0.010627
-54.234173 56.776852 -20.885372 -177.018547 -14.195432 -1.600620 -0.377874 14.680285 0.218053 -0.016646 1.345322 0.050617 -0.056772 2.223717 0.048029 -0.321144 13.148075 0.214212 0.523518 14.642032 2.095013 0.072859 -10.389086 2.031637 -2.916991 0.566269 1.637719 -1.685613 -6.138470 -4.661904 -77.691828 -48.680117 106.851910 -12.963110 15.814937 3.855675 -5.838016 -1.678591 2.217810 5.401197 -11.626736 5.027464 59.778632 -48.973739 -98.642270 11.256463 -8.522684 2.234546 -4.033571 -61.639457 12.228410 -29.260803 84.177571 -32.929717 -9.161477 -15.845559 9.262078 -0.021545 0.311442 -0.361897 16.544860 -55.584562 -19.862220 67.219706 71.631749 68.485665 -6.940162 -14.095781 1.181134 -0.037129 -0.001348 -0.012584
-54.234540 56.820536 -20.876261 -177.038960 -14.202078 -1.629937 -0.362582 14.659080 0.230583 -0.020414 1.345003 0.045784 -0.054162 2.221801 0.045024 -0.306830 13.139156 0.203460 0.523526 14.586628 2.045879 0.083792 -10.410488 2.013796 -2.935162 0.513480 1.631487 -1.662379 -6.076209 -4.632227 -77.687005 -48.677862 106.876410 -12.954274 15.804702 3.873561 -5.821564 -1.674359 2.234944 5.395796 -11.585225 5.032098 59.793956 -48.942048 -98.681033 11.260763 -8.559019 2.248362 -4.088788 -61.614923 12.328430 -29.334365 84.181650 -33.021532 -9.201909 -15.956807 9.402464 -0.019789 0.324789 -0.387510 16.507708 -55.587662 -19.798169 67.194772 71.632310 68.465110 -6.935733 -14.061329 1.172860 -0.035873 -0.032074 -0.011235
-54.231588 56.860914 -20.868413 -177.051876 -14.212893 -1.674832 -0.348536 14.642583 0.261858 -0.030630 1.313375 0.024113 -0.051377 2.216000 0.040290 -0.286445 13.164263 0.213277 0.528065 14.548903 2.007843 0.097099 -10.450441 1.972543 -2.936928 0.510852 1.640765 -1.654474 -6.051268 -4.620682 -77.681885 -48.673535 106.916160 -12.921742 15.799496 3.934601 -5.807641 -1.654716 2.251119 5.408098 -11.551548 5.020693 59.787698 -48.942245 -98.702903 11.326509 -8.633338 2.227015 -4.293334 -61.556364 12.600249 -29.585511 84.152627 -33.369193 -9.256326 -16.071416 9.553727 -0.000682 0.343958 -0.399764 16.427387 -55.601578 -19.699913 67.215910 71.633009 68.481226 -6.927383 -14.030595 1.167146 -0.037794 -0.061739 -0.013827
-54.230801 56.897384 -20.863063 -177.066246 -14.235893 -1.700548 -0.338057 14.637707 0.276226 -0.030137 1.311535 0.022689 -0.044840 2.229667 0.045912 -0.284549 13.160363 0.207160 0.525229 14.491442 1.950635 0.113999 -10.489393 1.925951 -2.942505 0.487751 1.634642 -1.656783 -6.039716 -4.617746 -77.655261 -48.660459 106.938763 -12.928081 15.798855 3.914602 -5.800881 -1.641352 2.259101 5.442781 -11.520110 4.990376 59.774796 -48.955930 -98.737811 11.316627 -8.636603 2.234190 -4.453715 -61.493308 12.821853 -29.703049 84.149250 -33.576943 -9.325282 -16.181399 9.703937 0.011960 0.347523 -0.410534 16.373595 -55.594649 -19.629067 67.237262 71.632395 68.495203 -6.920786 -14.003897 1.170336 -0.040482 -0.089346 -0.020968
-54.231647 56.928133 -20.857986 -177.083037 -14.256388 -1.710178 -0.331039 14.629562 0.275321 -0.026183 1.316771 0.023872 -0.040208 2.236813 0.048692 -0.282735 13.156467 0.201137 0.521577 14.434699 1.888027 0.135253 -10.526800 1.874963 -2.948321 0.464224 1.627804 -1.665247 -6.029053 -4.619447 -77.619881 -48.645486 106.946361 -12.929582 15.798194 3.904471 -5.782812 -1.648191 2.257230 5.454295 -11.471879 4.981944 59.773575 -48.937992 -98.782368 11.328100 -8.662810 2.236976 -4.562760 -61.441132 12.983941 -29.815708 84.150590 -33.761250 -9.387275 -16.276865 9.848425 0.017813 0.337483 -0.420313 16.348004 -55.583273 -19.585135 67.251155 71.631672 68.500452 -6.917780 -13.985233 1.170220 -0.042884 -0.108548 -0.021368
-54.230910 56.951403 -20.852918 -177.102154 -14.271460 -1.724302 -0.314385 14.630126 0.287333 -0.033244 1.300851 0.018163 -0.038964 2.231854 0.042626 -0.281874 13.148064 0.183005 0.533395 14.401913 1.843305 0.158824 -10.563597 1.818939 -2.944424 0.465188 1.638728 -1.671485 -6.014945 -4.616879 -77.599194 -48.662113 106.980647 -12.956179 15.794366 3.879629 -5.754202 -1.648505 2.260206 5.455572 -11.406337 4.991021 59.770568 -48.916658 -98.832542 11.368821 -8.705460 2.247594 -4.669456 -61.396871 13.140011 -29.899788 84.149438 -33.902870 -9.451766 -16.353449 9.985873 0.023102 0.315401 -0.427673 16.327762 -55.578792 -19.543343 67.269082 71.630789 68.514289 -6.894939 -13.933349 1.173171 -0.062766 -0.162095 -0.029652
-54.234849 56.965890 -20.851284 -177.137355 -14.304097 -1.704687 -0.289736 14.648424 0.269149 -0.044380 1.277332 0.010644 -0.034882 2.237334 0.040807 -0.300245 13.097414 0.141968 0.568900 14.407784 1.813702 0.183015 -10.600179 1.758508 -2.922581 0.509436 1.661075 -1.692555 -6.028641 -4.624464 -77.521866 -48.635138 106.934847 -12.953917 15.795480 3.879583 -5.711340 -1.582756 2.287996 5.460194 -11.370085 4.988810 59.758785 -48.891077 -98.864215 11.362815 -8.738597 2.264241 -4.684752 -61.339939 13.199871 -29.871271 84.154952 -33.917882 -9.502140 -16.416208 10.118221 0.027837 0.280757 -0.434888 16.359482 -55.549360 -19.543150 67.309413 71.630528 68.551374 -6.902474 -13.930874 1.170366 -0.059226 -0.172107 -0.026661
-54.241202 56.968862 -20.849833 -177.150287 -14.332401 -1.674332 -0.297991 14.646861 0.230451 -0.044608 1.277558 0.007761 -0.049167 2.200312 0.027463 -0.275385 13.143012 0.151108 0.570936 14.353647 1.743919 0.207446 -10.636420 1.695909 -2.927271 0.495834 1.648661 -1.693850 -6.015930 -4.616393 -77.488629 -48.624185 106.916725 -12.948246 15.793987 3.878983 -5.692781 -1.581081 2.288056 5.452777 -11.345859 4.994632 59.746130 -48.854396 -98.886737 11.325510 -8.752638 2.289139 -4.670818 -61.289218 13.186791 -29.887051 84.164458 -33.958847 -9.512771 -16.479360 10.243049 0.028883 0.275946 -0.499721 16.398771 -55.522507 -19.573904 67.334977 71.634020 68.573919 -6.914571 -13.931156 1.167236 -0.048723 -0.171967 -0.020051
-54.249276 56.959060 -20.847921 -177.179320 -14.353086 -1.627867 -0.308797 14.613235 0.165505 -0.025167 1.308886 0.017150 -0.046266 2.206359 0.028555 -0.276774 13.139706 0.143769 0.576923 14.299426 1.671551 0.231904 -10.671879 1.631815 -2.931899 0.483329 1.636469 -1.690605 -6.002656 -4.603657 -77.457125 -48.615435 106.893012 -12.943865 15.788829 3.873217 -5.675537 -1.574932 2.292309 5.460219 -11.311884 4.986464 59.698822 -48.827388 -98.908625 11.308463 -8.802206 2.321626 -4.601661 -61.248423 13.117766 -29.846512 84.162081 -33.928313 -9.514629 -16.525957 10.363397 0.036727 0.212114 -0.475553 16.475008 -55.498511 -19.627515 67.383410 71.634628 68.613101 -6.936467 -13.956909 1.173272 -0.038085 -0.152268 -0.015980
-54.258641 56.936983 -20.846316 -177.200062 -14.369789 -1.573149 -0.315383 14.602774 0.103526 -0.024538 1.307073 0.015532 -0.037279 2.217730 0.030872 -0.277694 13.114478 0.122623 0.585332 14.268917 1.612954 0.257472 -10.707258 1.565792 -2.939948 0.495385 1.639639 -1.687842 -5.986320 -4.590347 -77.430315 -48.606997 106.873023 -12.945025 15.784794 3.866670 -5.666499 -1.535153 2.312084 5.463305 -11.287813 4.976130 59.689855 -48.833198 -98.926569 11.327592 -8.830195 2.332700 -4.514791 -61.212683 13.009471 -29.781610 84.162691 -33.864786 -9.523531 -16.573641 10.487648 0.035879 0.149564 -0.453735 16.556450 -55.474231 -19.698581 67.409169 71.635266 68.634842 -6.961147 -13.997155 1.170162 -0.011854 -0.113106 -0.006449
-54.268453 56.904873 -20.846582 -177.217711 -14.391762 -1.512321 -0.320140 14.611370 0.039906 -0.035307 1.285999 0.008745 -0.032003 2.220350 0.029277 -0.273237 13.106938 0.107148 0.597359 14.236162 1.551897 0.284376 -10.742702 1.497732 -2.943610 0.505101 1.643923 -1.688978 -5.966594 -4.579812 -77.392216 -48.601319 106.843208 -12.942739 15.773648 3.866885 -5.647753 -1.513427 2.325132 5.460625 -11.239685 4.970363 59.656373 -48.827527 -98.940782 11.389273 -8.876971 2.315483 -4.423498 -61.172329 12.884535 -29.746448 84.166468 -33.833160 -9.532838 -16.632227 10.623716 0.038811 0.113173 -0.466446 16.644249 -55.442542 -19.782122 67.463494 71.632921 68.685563 -6.992103 -14.060434 1.167808 0.009360 -0.057960 0.003171
-54.277698 56.864983 -20.845975 -177.249840 -14.402089 -1.443433 -0.312441 14.608672 -0.027886 -0.035218 1.284782 0.007835 -0.052128 2.174179 0.013586 -0.254272 13.128567 0.099860 0.611945 14.203111 1.488742 0.312342 -10.776700 1.426666 -2.941078 0.515231 1.647478 -1.692484 -5.943490 -4.568557 -77.343566 -48.591928 106.801136 -12.940887 15.739714 3.858655 -5.619413 -1.509440 2.332312 5.443896 -11.172461 4.968487 59.629339 -48.815637 -98.959626 11.365150 -8.905870 2.322976 -4.324566 -61.145664 12.764230 -29.592703 84.172892 -33.696113 -9.562211 -16.701209 10.781882 0.045863 0.093514 -0.487111 16.756435 -55.420839 -19.879069 67.494292 71.633264 68.713417 -7.016852 -14.124716 1.164258 0.030411 0.004036 0.013418
